<svg width="24" height="25" viewBox="0 0 24 25" fill="none" xmlns="http://www.w3.org/2000/svg">
<path d="M22 16.8105V4.7405C22 3.5405 21.02 2.6505 19.83 2.7505H19.77C17.67 2.9305 14.48 4.0005 12.7 5.1205L12.53 5.2305C12.24 5.4105 11.76 5.4105 11.47 5.2305L11.22 5.0805C9.44 3.9705 6.26 2.9105 4.16 2.7405C2.97 2.6405 2 3.5405 2 4.7305V16.8105C2 17.7705 2.78 18.6705 3.74 18.7905L4.03 18.8305C6.2 19.1205 9.55 20.2205 11.47 21.2705L11.51 21.2905C11.78 21.4405 12.21 21.4405 12.47 21.2905C14.39 20.2305 17.75 19.1205 19.93 18.8305L20.26 18.7905C21.22 18.6705 22 17.7705 22 16.8105Z" stroke="#232323" stroke-width="1.5" stroke-linecap="round" stroke-linejoin="round"/>
<path d="M12 5.56055V20.5605" stroke="#232323" stroke-width="1.5" stroke-linecap="round" stroke-linejoin="round"/>
<path d="M7.75 8.56055H5.5" stroke="#232323" stroke-width="1.5" stroke-linecap="round" stroke-linejoin="round"/>
<path d="M8.5 11.5605H5.5" stroke="#232323" stroke-width="1.5" stroke-linecap="round" stroke-linejoin="round"/>
</svg>
