<svg width="25" height="25" viewBox="0 0 25 25" fill="none" xmlns="http://www.w3.org/2000/svg">
<path d="M8.49983 22.7578H16.4998C20.5198 22.7578 21.2398 21.1478 21.4498 19.1878L22.1998 11.1878C22.4698 8.74781 21.7698 6.75781 17.4998 6.75781H7.49983C3.22983 6.75781 2.52983 8.74781 2.79983 11.1878L3.54983 19.1878C3.75983 21.1478 4.47983 22.7578 8.49983 22.7578Z" stroke="#232323" stroke-width="1.5" stroke-miterlimit="10" stroke-linecap="round" stroke-linejoin="round"/>
<path d="M8.5 6.75781V5.95781C8.5 4.18781 8.5 2.75781 11.7 2.75781H13.3C16.5 2.75781 16.5 4.18781 16.5 5.95781V6.75781" stroke="#232323" stroke-width="1.5" stroke-miterlimit="10" stroke-linecap="round" stroke-linejoin="round"/>
<path d="M14.5 13.7578V14.7578C14.5 14.7678 14.5 14.7678 14.5 14.7778C14.5 15.8678 14.49 16.7578 12.5 16.7578C10.52 16.7578 10.5 15.8778 10.5 14.7878V13.7578C10.5 12.7578 10.5 12.7578 11.5 12.7578H13.5C14.5 12.7578 14.5 12.7578 14.5 13.7578Z" stroke="#232323" stroke-width="1.5" stroke-miterlimit="10" stroke-linecap="round" stroke-linejoin="round"/>
<path d="M22.15 11.7578C19.84 13.4378 17.2 14.4378 14.5 14.7778" stroke="#232323" stroke-width="1.5" stroke-miterlimit="10" stroke-linecap="round" stroke-linejoin="round"/>
<path d="M3.12012 12.0278C5.37012 13.5678 7.91012 14.4978 10.5001 14.7878" stroke="#232323" stroke-width="1.5" stroke-miterlimit="10" stroke-linecap="round" stroke-linejoin="round"/>
</svg>
