<svg width="25" height="25" viewBox="0 0 25 25" fill="none" xmlns="http://www.w3.org/2000/svg">
<path d="M17.5 18.5005H13.5L9.04999 21.4605C8.38999 21.9005 7.5 21.4306 7.5 20.6306V18.5005C4.5 18.5005 2.5 16.5005 2.5 13.5005V7.50049C2.5 4.50049 4.5 2.50049 7.5 2.50049H17.5C20.5 2.50049 22.5 4.50049 22.5 7.50049V13.5005C22.5 16.5005 20.5 18.5005 17.5 18.5005Z" stroke="#232323" stroke-width="1.5" stroke-miterlimit="10" stroke-linecap="round" stroke-linejoin="round"/>
<path d="M12.4998 11.4302V11.2202C12.4998 10.5402 12.9198 10.1802 13.3398 9.8902C13.7498 9.6102 14.1598 9.25021 14.1598 8.59021C14.1598 7.67021 13.4198 6.93018 12.4998 6.93018C11.5798 6.93018 10.8398 7.67021 10.8398 8.59021" stroke="#232323" stroke-width="1.5" stroke-linecap="round" stroke-linejoin="round"/>
<path d="M12.4955 13.8203H12.5045" stroke="#232323" stroke-width="1.5" stroke-linecap="round" stroke-linejoin="round"/>
</svg>
