<svg width="24" height="25" viewBox="0 0 24 25" fill="none" xmlns="http://www.w3.org/2000/svg">
<path d="M17 14.1579V17.1579C17 21.1579 15.4 22.7579 11.4 22.7579H7.6C3.6 22.7579 2 21.1579 2 17.1579V13.3579C2 9.35793 3.6 7.75793 7.6 7.75793H10.6" stroke="#232323" stroke-width="1.5" stroke-linecap="round" stroke-linejoin="round"/>
<path d="M17.0001 14.1579H13.8001C11.4001 14.1579 10.6001 13.3579 10.6001 10.9579V7.75793L17.0001 14.1579Z" stroke="#232323" stroke-width="1.5" stroke-linecap="round" stroke-linejoin="round"/>
<path d="M11.6001 2.75793H15.6001" stroke="#232323" stroke-width="1.5" stroke-linecap="round" stroke-linejoin="round"/>
<path d="M7 5.75793C7 4.09793 8.34 2.75793 10 2.75793H12.62" stroke="#232323" stroke-width="1.5" stroke-linecap="round" stroke-linejoin="round"/>
<path d="M21.9999 8.75793V14.9479C21.9999 16.4979 20.7399 17.7579 19.1899 17.7579" stroke="#232323" stroke-width="1.5" stroke-linecap="round" stroke-linejoin="round"/>
<path d="M22 8.75793H19C16.75 8.75793 16 8.00793 16 5.75793V2.75793L22 8.75793Z" stroke="#232323" stroke-width="1.5" stroke-linecap="round" stroke-linejoin="round"/>
</svg>
