<svg width="52" height="53" viewBox="0 0 52 53" fill="none" xmlns="http://www.w3.org/2000/svg">
<path d="M0 8.75793C0 4.33966 3.58172 0.757935 8 0.757935H44C48.4183 0.757935 52 4.33966 52 8.75793V44.7579C52 49.1762 48.4183 52.7579 44 52.7579H8C3.58172 52.7579 0 49.1762 0 44.7579V8.75793Z" fill="#E2EEFF"/>
<path d="M24.9226 31.7672C24.9226 30.5939 24.6159 29.6086 24.0026 28.8112C23.5679 28.2619 22.9781 27.901 22.2332 27.7286C21.4999 27.5579 20.8066 27.5459 20.1799 27.6912C19.9666 26.4246 20.3132 25.0832 21.1932 23.6619C22.075 22.2414 23.2119 21.1734 24.6039 20.4579L22.4959 17.4246C21.4292 17.9526 20.4159 18.6219 19.4826 19.4312C18.5359 20.2406 17.6959 21.1712 16.9492 22.2232C16.2026 23.2752 15.6426 24.4632 15.2826 25.8099C14.9226 27.1566 14.8226 28.5299 14.9946 29.9432C15.2186 31.8099 15.8212 33.3032 16.8026 34.4099C17.783 35.5308 19.0043 36.0912 20.4666 36.0912C21.7532 36.0912 22.8212 35.7046 23.6666 34.9206C24.503 34.1526 24.9208 33.1001 24.9199 31.7632L24.9226 31.7672ZM37.0879 31.7672C37.0879 30.5939 36.7812 29.6086 36.1679 28.8112C35.7323 28.2512 35.1426 27.8881 34.3986 27.7219C33.6519 27.5574 32.9674 27.5477 32.3452 27.6926C32.1319 26.4392 32.4652 25.0926 33.3479 23.6659C34.2279 22.2526 35.3639 21.1859 36.7559 20.4659L34.6532 17.4246C33.5857 17.9526 32.5812 18.6214 31.6399 19.4312C30.6847 20.2527 29.8363 21.1906 29.1146 22.2232C28.3732 23.2766 27.8212 24.4632 27.4612 25.8099C27.0955 27.1555 26.9972 28.5598 27.1719 29.9432C27.3932 31.8099 27.9932 33.3032 28.9719 34.4099C29.9497 35.5228 31.1688 36.0792 32.6292 36.0792C33.9181 36.081 34.9857 35.6912 35.8319 34.9099C36.6683 34.1419 37.087 33.0894 37.0879 31.7526V31.7672Z" fill="#0066FF"/>
</svg>
