<svg width="100" height="100" viewBox="0 0 100 100" fill="none" xmlns="http://www.w3.org/2000/svg">
<path d="M96.8672 6.05781L96.7703 3.2375L93.9391 3.12969C93.9391 3.12969 93.7859 3.125 93.4937 3.125C89.3734 3.125 67.8219 4.12187 48.15 23.7875C42.8828 29.05 38.2687 34.5672 34.5328 39.9688C20.225 34.175 3.125 51.2625 3.125 51.2625C3.125 51.2625 16.2734 45.7859 25.7641 57.15C25.0641 59.5578 24.75 61.6422 24.7156 63.45L22.1281 66.0391C21.3703 66.7969 21.4312 68.0906 22.1891 68.85L22.8125 69.4719L21.0281 71.2578C20.5922 71.6937 20.4609 72.3594 20.7734 72.8531C19.5125 72.6109 17.6875 73.4469 13.9469 74.8359C9.21719 76.5906 8.34531 80.5812 8.34531 80.5812C8.34531 80.5812 9.87031 81.3297 12.1047 81.5563C9.24844 85.6875 9.90312 90.0687 9.90312 90.0687C9.90312 90.0687 14.2875 90.7219 18.4172 87.8688C18.6437 90.1031 19.3922 91.6266 19.3922 91.6266C19.3922 91.6266 23.3875 90.7531 25.1406 86.0219C26.55 82.225 27.3906 80.4016 27.1109 79.1422C27.625 79.3984 28.3187 79.35 28.7187 78.95L30.5047 77.1625L31.2531 77.9109C32.0141 78.6687 33.1828 78.6078 33.9391 77.8469L36.5641 75.2266C38.4656 75.1875 40.5563 74.8313 42.7953 74.1828C54.2609 83.675 48.7531 96.875 48.7531 96.875C48.7531 96.875 65.8922 79.7422 60.0344 65.425C65.3828 61.7375 70.8938 57.1328 76.2016 51.8297C97.4594 30.5828 96.9031 7.04844 96.8672 6.05781ZM25.0078 81.9734C24.0344 84.5984 21.8219 85.0828 21.8219 85.0828C21.8219 85.0828 21.2484 83.8969 21.2531 82.2812C18.8656 84.1766 16.1703 83.8016 16.1703 83.8016C16.1703 83.8016 15.7969 81.1063 17.6922 78.7188C16.0734 78.7219 14.8891 78.15 14.8891 78.15C14.8891 78.15 15.3734 75.9375 17.9984 74.9641C20.0172 74.2156 21.0203 73.7703 21.7172 73.8703L26.1063 78.2578C26.2047 78.9531 25.7578 79.9563 25.0078 81.9734ZM36.1859 72.2141C35.2613 72.2137 34.3404 72.0961 33.4453 71.8641L28.0703 66.4891C25.9578 57.8172 35.0937 41.1281 50.2953 25.9313C58.5375 17.6922 67.1641 12.8859 74.5469 10.0781L89.9156 25.4469C87.1078 32.825 82.3016 41.4469 74.0578 49.6859C60.3141 63.4234 45.3422 72.2141 36.1859 72.2141Z" fill="#003589"/>
<path d="M66.0332 26.375C64.0219 26.375 62.093 27.174 60.6708 28.5962C59.2486 30.0184 58.4496 31.9473 58.4496 33.9586C58.4496 35.9699 59.2486 37.8988 60.6708 39.321C62.093 40.7432 64.0219 41.5422 66.0332 41.5422C68.0445 41.5418 69.9733 40.7428 71.3957 39.321C72.8182 37.8991 73.6179 35.9706 73.6191 33.9594C73.6183 31.9479 72.8188 30.019 71.3963 28.5968C69.9738 27.1746 68.0447 26.3754 66.0332 26.375ZM66.0332 39.0125C65.3694 39.0127 64.7121 38.8822 64.0987 38.6283C63.4854 38.3745 62.9281 38.0023 62.4585 37.5331C61.989 37.0639 61.6165 36.5068 61.3623 35.8936C61.1081 35.2804 60.9772 34.6232 60.977 33.9594C60.9768 33.2956 61.1073 32.6383 61.3611 32.0249C61.615 31.4116 61.9871 30.8542 62.4563 30.3847C62.9256 29.9152 63.4827 29.5427 64.0959 29.2885C64.709 29.0343 65.3663 28.9033 66.0301 28.9031C67.3707 28.9027 68.6565 29.4349 69.6047 30.3825C70.553 31.3302 71.0859 32.6157 71.0863 33.9563C71.0867 35.2968 70.5546 36.5827 69.607 37.5309C68.6593 38.4791 67.3738 39.0121 66.0332 39.0125ZM50.8613 41.5391C48.8499 41.5399 46.9211 42.3392 45.4987 43.7613C44.0763 45.1834 43.2766 47.112 43.2754 49.1234C43.3157 51.1083 44.1325 52.9982 45.5504 54.3877C46.9684 55.7772 48.8745 56.5554 50.8598 56.5554C52.845 56.5554 54.7512 55.7772 56.1691 54.3877C57.5871 52.9982 58.4038 51.1083 58.4441 49.1234C58.4437 47.1123 57.6447 45.1837 56.2228 43.7615C54.8009 42.3393 52.8724 41.5399 50.8613 41.5391ZM50.8598 54.1766C50.1886 54.1884 49.5218 54.0664 48.8983 53.8177C48.2748 53.569 47.7071 53.1986 47.2283 52.7281C46.7494 52.2577 46.3691 51.6965 46.1095 51.0775C45.8499 50.4585 45.7162 49.7939 45.7162 49.1227C45.7162 48.4514 45.8499 47.7868 46.1095 47.1678C46.3691 46.5488 46.7494 45.9876 47.2283 45.5172C47.7071 45.0467 48.2748 44.6763 48.8983 44.4276C49.5218 44.179 50.1886 44.0569 50.8598 44.0688C51.5239 44.0683 52.1816 44.1988 52.7952 44.4528C53.4088 44.7068 53.9664 45.0792 54.436 45.5488C54.9056 46.0184 55.278 46.5759 55.532 47.1896C55.7859 47.8032 55.9164 48.4609 55.916 49.125C55.9166 49.789 55.7862 50.4465 55.5323 51.06C55.2784 51.6734 54.9059 52.2308 54.4362 52.7C53.9665 53.1693 53.4088 53.5413 52.7951 53.7946C52.1814 54.048 51.5237 54.1778 50.8598 54.1766Z" fill="#003589"/>
<path d="M73.2895 13.6672C73.9876 13.6672 74.5535 13.1013 74.5535 12.4031C74.5535 11.705 73.9876 11.1391 73.2895 11.1391C72.5913 11.1391 72.0254 11.705 72.0254 12.4031C72.0254 13.1013 72.5913 13.6672 73.2895 13.6672Z" fill="#003589"/>
<path d="M76.868 17.2391C77.5652 17.2391 78.1305 16.6738 78.1305 15.9766C78.1305 15.2793 77.5652 14.7141 76.868 14.7141C76.1707 14.7141 75.6055 15.2793 75.6055 15.9766C75.6055 16.6738 76.1707 17.2391 76.868 17.2391Z" fill="#003589"/>
<path d="M80.4434 20.8172C81.1423 20.8172 81.709 20.2506 81.709 19.5516C81.709 18.8526 81.1423 18.2859 80.4434 18.2859C79.7444 18.2859 79.1777 18.8526 79.1777 19.5516C79.1777 20.2506 79.7444 20.8172 80.4434 20.8172Z" fill="#003589"/>
<path d="M84.0176 24.3906C84.7166 24.3906 85.2832 23.824 85.2832 23.125C85.2832 22.426 84.7166 21.8594 84.0176 21.8594C83.3186 21.8594 82.752 22.426 82.752 23.125C82.752 23.824 83.3186 24.3906 84.0176 24.3906Z" fill="#003589"/>
<path d="M88.491 25.8063C88.3735 25.6886 88.2339 25.5953 88.0803 25.5316C87.9266 25.468 87.762 25.4352 87.5957 25.4352C87.4294 25.4352 87.2647 25.468 87.1111 25.5316C86.9575 25.5953 86.8179 25.6886 86.7004 25.8063C86.4633 26.0436 86.3301 26.3653 86.3301 26.7008C86.3301 27.0363 86.4633 27.358 86.7004 27.5953C86.9386 27.8314 87.2603 27.9638 87.5957 27.9638C87.931 27.9638 88.2528 27.8314 88.491 27.5953C88.7281 27.358 88.8613 27.0363 88.8613 26.7008C88.8613 26.3653 88.7281 26.0436 88.491 25.8063Z" fill="#003589"/>
</svg>
