<svg width="24" height="25" viewBox="0 0 24 25" fill="none" xmlns="http://www.w3.org/2000/svg">
<g clip-path="url(#clip0_687_2650)">
<path d="M16.25 11.7577H7.75C7.34 11.7577 7 12.0977 7 12.5077C7 12.9177 7.34 13.2577 7.75 13.2577H16.25C16.66 13.2577 17 12.9177 17 12.5077C17 12.0977 16.66 11.7577 16.25 11.7577ZM16.25 16.2577H7.75C7.34 16.2577 7 16.5977 7 17.0077C7 17.4177 7.34 17.7577 7.75 17.7577H16.25C16.66 17.7577 17 17.4177 17 17.0077C17 16.5977 16.66 16.2577 16.25 16.2577ZM7 8.00768C7 8.41768 7.34 8.75768 7.75 8.75768H15.2L15.11 8.47768C15.06 8.33768 14.99 8.20768 14.9 8.08768C14.86 8.03768 14.83 7.99768 14.79 7.95768C14.64 7.80768 14.46 7.69768 14.27 7.63768L13.1 7.25768H7.75C7.34 7.25768 7 7.59768 7 8.00768ZM19.8 14.0477L19.54 13.2577L18.74 12.9677C18.65 12.9377 18.58 12.8877 18.5 12.8477V20.5077C18.5 20.9177 18.16 21.2577 17.75 21.2577H6.25C5.84 21.2577 5.5 20.9177 5.5 20.5077V5.00768C5.5 4.59768 5.84 4.25768 6.25 4.25768H11.78C11.81 4.19768 11.83 4.12768 11.87 4.06768C12.11 3.72768 12.45 3.46768 12.86 3.32768L14.27 2.86768C14.34 2.83768 14.42 2.79768 14.49 2.75768H6.25C5.01 2.75768 4 3.76768 4 5.00768V20.5077C4 21.7477 5.01 22.7577 6.25 22.7577H17.75C18.99 22.7577 20 21.7477 20 20.5077V14.4277C19.9175 14.31 19.8503 14.1823 19.8 14.0477ZM15.85 6.90768C15.93 6.98768 16.01 7.07768 16.08 7.17768C16.28 7.42768 16.43 7.71768 16.53 8.02768L16.98 9.40767C17.02 9.51767 17.09 9.60767 17.18 9.66768C17.27 9.73767 17.38 9.76768 17.49 9.76768C17.6016 9.76988 17.7107 9.73468 17.8 9.66768C17.88 9.60767 17.95 9.52768 17.99 9.43768V9.40767L18.45 8.02768C18.59 7.60768 18.82 7.22768 19.14 6.91768C19.45 6.60768 19.83 6.36768 20.25 6.22768L21.63 5.77768C21.74 5.73768 21.83 5.66768 21.89 5.57768C21.957 5.4884 21.9922 5.37927 21.99 5.26768C21.9922 5.15608 21.957 5.04695 21.89 4.95768C21.8225 4.86922 21.7328 4.80021 21.63 4.75768H21.6L20.22 4.30768C19.8 4.16768 19.42 3.93768 19.11 3.61768C18.7971 3.30612 18.5609 2.92613 18.42 2.50768L17.97 1.12768C17.9331 1.0217 17.863 0.930495 17.77 0.867676C17.68 0.807676 17.57 0.767676 17.46 0.767676C17.3484 0.765472 17.2393 0.800674 17.15 0.867676C17.06 0.927676 16.99 1.02768 16.95 1.12768L16.5 2.50768V2.53768C16.35 2.93768 16.12 3.30768 15.83 3.60768C15.52 3.91768 15.15 4.15768 14.73 4.29768L13.35 4.74768C13.24 4.78768 13.15 4.85768 13.09 4.94768C13.023 5.03695 12.9878 5.14608 12.99 5.25768C12.99 5.36768 13.02 5.47768 13.09 5.56768C13.15 5.65768 13.25 5.72768 13.35 5.76768L14.73 6.21768C15.15 6.35768 15.53 6.59768 15.84 6.90768H15.85ZM23.78 10.9777C23.844 10.9777 23.91 11.0377 23.95 11.0877C23.99 11.1377 24 11.1977 24 11.2577C24 11.3177 23.99 11.3777 23.95 11.4277C23.91 11.4777 23.86 11.5177 23.8 11.5377L23.03 11.7877C22.8 11.8677 22.59 11.9977 22.41 12.1677C22.24 12.3377 22.11 12.5477 22.03 12.7877L21.78 13.5477C21.76 13.6077 21.72 13.6577 21.67 13.6977C21.6219 13.7366 21.5619 13.7579 21.5 13.7579C21.4381 13.7579 21.3781 13.7366 21.33 13.6977C21.2797 13.6593 21.2415 13.6072 21.22 13.5477L20.97 12.7877C20.89 12.5577 20.76 12.3377 20.59 12.1677C20.42 11.9977 20.2 11.8577 19.97 11.7877L19.2 11.5377C19.1405 11.5161 19.0884 11.478 19.05 11.4277C19.011 11.3796 18.9898 11.3196 18.9898 11.2577C18.9898 11.1958 19.011 11.1358 19.05 11.0877C19.09 11.0377 19.14 10.9977 19.2 10.9777L19.97 10.7277C20.2 10.6477 20.41 10.5177 20.58 10.3477C20.75 10.1777 20.88 9.96768 20.95 9.73767L21.2 8.97768C21.22 8.91768 21.26 8.86767 21.31 8.82767C21.3581 8.7887 21.4181 8.76744 21.48 8.76744C21.5419 8.76744 21.6019 8.7887 21.65 8.82767C21.7 8.86767 21.74 8.91768 21.76 8.97768L22.01 9.73767C22.09 9.96768 22.22 10.1777 22.39 10.3577C22.56 10.5277 22.77 10.6577 23.01 10.7377L23.78 10.9777Z" fill="#232323"/>
</g>
<defs>
<clipPath id="clip0_687_2650">
<rect width="24" height="24" fill="white" transform="translate(0 0.757812)"/>
</clipPath>
</defs>
</svg>
