<svg width="25" height="25" viewBox="0 0 25 25" fill="none" xmlns="http://www.w3.org/2000/svg">
<path d="M12.5 12.7578H9.5C7.9087 12.7578 6.38258 12.1257 5.25736 11.0005C4.13214 9.87523 3.5 8.34911 3.5 6.75781V4.75781H6.5C8.0913 4.75781 9.61742 5.38995 10.7426 6.51517C11.8679 7.64039 12.5 9.16651 12.5 10.7578V20.7578M12.5 14.7578C12.5 13.1665 13.1321 11.6404 14.2574 10.5152C15.3826 9.38995 16.9087 8.75781 18.5 8.75781H21.5V9.75781C21.5 11.3491 20.8679 12.8752 19.7426 14.0005C18.6174 15.1257 17.0913 15.7578 15.5 15.7578H12.5" stroke="#212121" stroke-width="1.33333" stroke-linecap="round" stroke-linejoin="round"/>
</svg>
