<svg width="25" height="24" viewBox="0 0 25 24" fill="none" xmlns="http://www.w3.org/2000/svg">
<path d="M7.98047 18.35L11.0805 20.75C11.4805 21.15 12.3805 21.35 12.9805 21.35H16.7805C17.9805 21.35 19.2805 20.45 19.5805 19.25L21.9805 11.95C22.4805 10.55 21.5805 9.34997 20.0805 9.34997H16.0805C15.4805 9.34997 14.9805 8.84997 15.0805 8.14997L15.5805 4.94997C15.7805 4.04997 15.1805 3.04997 14.2805 2.74997C13.4805 2.44997 12.4805 2.84997 12.0805 3.44997L7.98047 9.54997" stroke="black" stroke-width="1.5" stroke-miterlimit="10"/>
<path d="M2.87988 18.35V8.55002C2.87988 7.15002 3.47988 6.65002 4.87988 6.65002H5.87988C7.27988 6.65002 7.87988 7.15002 7.87988 8.55002V18.35C7.87988 19.75 7.27988 20.25 5.87988 20.25H4.87988C3.47988 20.25 2.87988 19.75 2.87988 18.35Z" stroke="black" stroke-width="1.5" stroke-linecap="round" stroke-linejoin="round"/>
</svg>
