<svg width="172" height="48" viewBox="0 0 172 48" fill="none" xmlns="http://www.w3.org/2000/svg">
<g clip-path="url(#clip0_678_11558)">
<path d="M32.5615 8.70499C30.9848 7.16876 29.9337 5.11275 29.541 2.85461C29.489 2.55429 29.4486 2.2482 29.4197 1.94789V0.925659H21.4498V32.557C21.4382 36.2416 18.4408 39.2275 14.7504 39.2275C13.6647 39.2275 12.6424 38.9676 11.7357 38.5113C10.6271 37.9538 9.6954 37.099 9.04471 36.0424C8.39402 34.9858 8.04999 33.769 8.05107 32.5281C8.05107 28.8319 11.0485 25.8288 14.7504 25.8288C15.4608 25.8288 16.1423 25.9385 16.7833 26.1406V18.0437C16.1192 17.9513 15.4435 17.905 14.7735 17.905C6.67655 17.9224 0.121582 24.4773 0.121582 32.557C0.121582 37.6277 2.69737 42.092 6.61302 44.7198C9.02343 46.3402 11.8633 47.2031 14.7677 47.1974C22.8589 47.1974 29.4139 40.6424 29.4139 32.557V16.3919C32.6346 18.6958 36.4965 19.9319 40.4563 19.9264V12.0085C39.2377 12.0085 38.0307 11.8121 36.8872 11.4252C36.0844 11.1537 34.5655 10.6686 32.5557 8.70499H32.5615Z" fill="#767676"/>
<path fill-rule="evenodd" clip-rule="evenodd" d="M51.0596 14.2261V19.7934H57.5799V41.0004H64.1002V19.9436H69.4077L71.2269 14.2261H51.0596ZM104.441 14.2261V19.7934H110.961V41.0004H117.481V19.9436H122.789L124.608 14.2261H104.441ZM72.4455 17.3851C72.4455 15.641 73.8662 14.2261 75.6277 14.2261C77.3892 14.2261 78.8157 15.641 78.8157 17.3851C78.8157 19.1293 77.3892 20.5442 75.6277 20.5442C73.8662 20.5442 72.4455 19.1293 72.4455 17.3851ZM72.4455 22.8024H78.8099V41.0004H72.4455V22.8024ZM81.5416 14.2261V41.0004H87.9118V34.0815L89.8812 32.2739L96.0954 41.1505H102.922L93.9758 28.2138L102.015 20.3883H94.2819L87.9118 26.7065V14.2203H81.5416V14.2261ZM150.239 14.2261V41.0004H156.609V34.0815L158.578 32.2739L164.798 41.1505H171.625L162.679 28.2138L170.718 20.3883H162.985L156.615 26.7065V14.2203H150.245L150.239 14.2261ZM135.373 41.1505C141.489 41.1505 146.444 36.2357 146.444 30.1717C146.444 24.1076 141.489 19.1928 135.373 19.1928H135.223C129.107 19.1928 124.152 24.1076 124.152 30.1717C124.152 36.2357 129.107 41.1505 135.223 41.1505H135.373ZM129.916 30.1717C129.916 27.2205 132.33 24.8353 135.298 24.8353C138.267 24.8353 140.681 27.2263 140.681 30.1717C140.681 33.1171 138.267 35.5138 135.298 35.5138C132.324 35.5138 129.916 33.1228 129.916 30.1717Z" fill="#767676"/>
</g>
<defs>
<clipPath id="clip0_678_11558">
<rect width="171.503" height="46.3059" fill="white" transform="translate(0.121582 0.911255)"/>
</clipPath>
</defs>
</svg>
